<?xml version="1.0" standalone="no"?>
<!DOCTYPE svg PUBLIC "-//W3C//DTD SVG 20010904//EN"
 "http://www.w3.org/TR/2001/REC-SVG-20010904/DTD/svg10.dtd">
<svg version="1.0" xmlns="http://www.w3.org/2000/svg"
 width="512.000000pt" height="512.000000pt" viewBox="0 0 512.000000 512.000000"
 preserveAspectRatio="xMidYMid meet">
<metadata>
Created by potrace 1.11, written by Peter Selinger 2001-2013
</metadata>
<g transform="translate(0.000000,512.000000) scale(0.100000,-0.100000)"
fill="#000000" stroke="none">
<path d="M0 2560 l0 -2560 2560 0 2560 0 0 1905 c0 1569 -2 1905 -13 1905 -7
0 -81 -22 -163 -50 -82 -27 -150 -50 -151 -50 -2 -1 -18 -7 -37 -15 -18 -8
-49 -17 -67 -20 -18 -3 -37 -11 -41 -18 -4 -7 -8 -8 -8 -3 0 5 -7 3 -15 -4 -8
-6 -19 -9 -25 -5 -5 3 -10 2 -10 -3 0 -5 -26 -17 -57 -27 -32 -10 -77 -26
-101 -37 -23 -10 -52 -20 -65 -22 -12 -3 -23 -5 -24 -7 -2 -1 -6 -2 -10 -3 -5
-1 -19 -8 -33 -16 -14 -7 -26 -13 -27 -12 -3 2 -31 -7 -61 -19 -13 -5 -28 -6
-34 -3 -6 4 -8 2 -4 -4 3 -6 -4 -13 -16 -17 -13 -4 -36 -13 -53 -20 -82 -37
-136 -54 -129 -43 4 7 -3 3 -15 -10 -12 -12 -26 -20 -31 -17 -5 3 -20 -1 -34
-10 -22 -14 -25 -14 -40 0 -9 9 -16 13 -16 8 0 -5 5 -14 12 -21 9 -9 7 -12 -9
-12 -12 0 -25 -5 -28 -10 -4 -6 -11 -8 -16 -5 -5 4 -9 1 -9 -5 0 -7 -6 -10
-14 -7 -8 3 -16 1 -18 -4 -2 -6 -10 -11 -18 -13 -8 -2 -33 -11 -54 -20 -22
-10 -50 -19 -63 -20 -12 -2 -32 -11 -43 -21 -19 -17 -24 -17 -43 -5 -19 12
-20 11 -10 -2 11 -12 7 -17 -23 -31 -19 -10 -40 -15 -45 -12 -5 4 -9 2 -9 -2
0 -8 -71 -45 -90 -48 -3 -1 -28 -13 -56 -28 -28 -14 -54 -23 -58 -20 -3 4 -6
2 -6 -4 0 -6 -7 -14 -16 -17 -12 -5 -15 -2 -10 11 4 10 -4 5 -17 -11 -16 -19
-28 -26 -37 -21 -8 5 -11 4 -7 -2 6 -10 -50 -40 -65 -35 -5 1 -8 -2 -8 -7 0
-5 -7 -12 -16 -15 -12 -4 -15 -2 -10 9 4 13 2 14 -14 5 -11 -6 -20 -13 -20
-16 0 -3 5 -2 10 1 16 10 11 -1 -7 -16 -11 -10 -14 -10 -9 -1 4 6 2 12 -3 12
-6 0 -11 -6 -11 -12 0 -14 -100 -74 -100 -61 0 4 -4 4 -8 -2 -4 -5 -16 -17
-26 -25 -18 -14 -19 -13 -13 4 6 16 5 17 -8 6 -8 -7 -13 -16 -10 -20 5 -8
-235 -146 -252 -144 -7 1 -11 -2 -8 -6 3 -4 -1 -10 -9 -13 -7 -3 -16 -17 -18
-31 -3 -14 -2 -24 2 -21 3 2 12 -31 19 -73 7 -42 15 -85 18 -94 2 -10 0 -18
-6 -18 -6 0 -11 -8 -11 -17 0 -15 2 -16 9 -4 8 12 11 10 15 -10 12 -48 22
-115 21 -141 -1 -15 3 -24 9 -21 5 4 7 -1 3 -11 -4 -9 -3 -24 3 -34 13 -24 43
-198 44 -254 1 -26 4 -41 9 -35 5 7 7 2 6 -13 -1 -14 1 -33 6 -43 4 -9 4 -29
1 -45 -4 -16 -3 -22 2 -14 9 13 55 -214 56 -280 1 -20 4 -34 9 -31 4 2 7 0 7
-6 0 -5 26 15 58 45 71 69 201 135 337 171 95 26 112 27 335 27 212 0 243 -2
315 -22 44 -12 89 -31 99 -42 27 -27 34 -116 12 -159 -31 -60 -87 -63 -197
-11 -165 78 -411 61 -616 -44 -94 -47 -163 -138 -163 -214 0 -122 172 -221
385 -222 77 0 221 21 300 44 80 23 129 28 160 16 39 -15 45 -26 45 -87 0 -73
-12 -98 -57 -115 -87 -34 -174 -43 -433 -43 -231 0 -263 2 -343 23 -48 12 -97
27 -108 32 -12 7 -19 7 -19 1 0 -6 -6 -9 -12 -7 -7 1 -10 1 -5 -2 4 -2 12 -12
18 -23 10 -19 4 -20 -243 -20 -139 -1 -338 -3 -443 -6 l-190 -4 -81 40 c-101
49 -401 219 -409 231 -3 5 -3 33 1 62 l6 53 112 67 c138 82 233 152 241 179
18 56 -73 105 -178 97 -76 -6 -178 -49 -211 -89 -13 -15 -92 -162 -177 -328
l-154 -301 -114 0 -114 0 6 67 c8 77 27 118 259 545 79 146 146 259 156 262
49 15 210 37 307 43 112 6 316 -16 358 -39 25 -13 88 -18 81 -6 -3 5 -12 7
-20 4 -9 -3 -15 3 -18 17 -3 12 -8 35 -11 51 -6 27 -5 28 11 15 12 -9 10 -4
-5 17 -13 17 -24 49 -25 70 -2 22 -6 46 -10 55 -4 9 -6 20 -5 25 1 5 -1 16 -4
24 -12 29 -45 215 -40 223 3 5 11 6 18 4 10 -4 10 0 1 19 l-11 23 -6 -22 c-6
-21 -6 -21 -14 5 -4 15 -4 32 0 37 13 22 -34 10 -74 -19 -23 -17 -47 -28 -53
-24 -6 4 -8 3 -4 -4 3 -6 2 -13 -4 -17 -5 -3 -10 -1 -10 5 0 6 -5 8 -10 5 -6
-4 -8 -10 -5 -15 8 -12 -23 -33 -41 -26 -8 3 -13 10 -10 15 8 13 -22 7 -35 -6
-8 -8 -7 -13 2 -18 7 -5 10 -4 5 3 -10 17 10 23 24 7 17 -21 4 -35 -30 -30
-17 2 -28 0 -25 -5 3 -5 13 -7 23 -4 14 4 14 3 -2 -8 -10 -7 -26 -21 -35 -30
-8 -10 -18 -18 -21 -18 -4 0 -29 -20 -56 -45 -29 -27 -55 -43 -64 -40 -8 4
-12 3 -8 0 7 -8 -33 -51 -45 -47 -4 1 -6 -1 -5 -5 2 -5 -22 -30 -52 -58 -78
-70 -104 -92 -97 -79 7 12 -28 12 -40 0 -5 -4 -2 -6 6 -4 34 8 15 -23 -56 -92
-43 -41 -68 -64 -58 -50 l20 25 -22 -18 c-12 -11 -19 -25 -17 -31 7 -18 -56
-63 -84 -61 -13 1 -25 -2 -27 -6 -3 -4 6 -6 20 -4 14 1 25 -1 25 -5 0 -14 -49
-52 -60 -45 -6 3 -9 1 -8 -6 2 -7 -3 -13 -11 -14 -8 0 -16 -7 -18 -15 -4 -13
-3 -13 6 0 6 8 11 11 11 5 0 -5 -35 -46 -78 -91 -42 -44 -92 -99 -111 -122
-18 -23 -37 -39 -42 -36 -5 3 -8 0 -7 -8 2 -7 -3 -12 -10 -10 -8 1 -11 -2 -7
-8 9 -14 -14 -42 -28 -33 -6 3 -7 1 -3 -5 4 -7 4 -12 -1 -12 -4 0 -16 -14 -25
-31 -12 -19 -22 -28 -30 -23 -7 4 -10 4 -6 -1 9 -10 -24 -57 -76 -109 -21 -21
-33 -35 -25 -31 16 10 -24 -40 -61 -74 -14 -13 -19 -20 -11 -15 9 4 7 -2 -5
-19 l-19 -25 -222 -1 c-123 0 -223 3 -223 7 0 16 37 62 45 55 4 -5 5 0 2 10
-4 9 -2 17 3 17 6 0 9 3 8 7 -5 15 24 73 33 67 5 -3 6 3 2 12 -4 11 -2 15 4
11 6 -4 10 1 9 11 0 9 5 16 12 14 8 -1 11 2 8 6 -7 12 31 92 44 92 5 0 7 6 4
13 -2 7 5 23 16 35 11 12 19 22 16 22 -4 0 34 78 92 184 53 98 58 106 67 98 4
-4 5 1 2 10 -4 10 -2 18 4 18 6 0 8 4 5 8 -2 4 8 30 23 56 19 32 31 44 35 35
3 -8 3 -4 0 9 -3 13 -1 22 6 22 6 0 9 4 6 9 -4 5 6 24 21 42 16 18 22 29 15
25 -11 -7 -12 -4 -3 13 7 11 17 21 23 21 6 0 9 3 5 6 -8 9 41 104 54 104 5 0
7 5 3 12 -5 8 -1 9 12 4 15 -5 16 -4 7 5 -12 12 2 59 19 59 4 0 7 3 7 8 -3 20
2 32 13 26 7 -5 8 -3 3 5 -4 7 2 22 16 37 12 13 19 24 14 24 -4 0 -1 8 8 18 8
9 16 21 16 25 0 18 44 97 54 97 5 0 8 3 5 6 -8 8 50 124 62 124 6 0 9 3 9 8
-3 12 23 72 30 72 4 0 8 6 8 13 1 22 59 117 68 110 4 -5 5 -2 1 5 -4 6 3 30
15 52 19 33 25 38 37 27 13 -10 14 -9 3 11 -8 15 -8 22 -1 22 6 0 8 5 5 10 -3
6 -1 10 6 10 7 0 9 3 6 6 -7 8 80 175 97 186 6 4 7 8 3 8 -5 0 2 15 15 33 13
17 23 34 23 38 0 3 16 36 35 73 26 52 36 64 40 50 6 -15 8 -14 12 8 3 17 1 25
-5 21 -5 -3 5 22 23 55 18 34 36 59 40 57 4 -3 7 1 6 8 -2 18 107 226 116 221
4 -3 5 1 2 9 -3 8 2 20 11 27 8 7 15 18 15 24 0 6 10 27 22 46 12 19 22 38 23
42 0 3 4 10 9 15 5 5 6 3 2 -4 -4 -7 -2 -13 4 -13 6 0 9 8 5 18 -3 11 3 30 16
45 11 15 17 27 13 27 -4 0 1 7 12 16 10 8 13 13 7 9 -9 -4 -11 -1 -7 9 3 9 10
16 15 16 5 0 8 5 7 11 -2 6 3 14 11 17 9 3 11 0 6 -9 -5 -8 -4 -11 1 -6 4 4 9
18 9 30 1 36 16 68 27 61 7 -5 9 -2 6 7 -3 8 9 39 28 69 19 30 39 66 45 80 21
46 27 55 39 52 6 -1 8 3 4 9 -3 6 6 38 21 70 23 47 31 56 42 47 11 -8 12 -7 7
5 -3 9 -2 22 2 29 5 7 9 18 10 24 1 6 18 40 37 75 l36 64 170 3 c135 2 171 0
172 -10 3 -31 8 -58 23 -128 9 -41 14 -80 12 -87 -3 -7 -1 -15 3 -17 4 -3 14
-40 21 -83 18 -110 19 -113 29 -163 5 -25 13 -66 16 -90 12 -81 14 -95 24
-134 5 -22 7 -44 5 -48 -3 -5 -1 -14 4 -21 9 -11 19 -61 28 -142 2 -16 9 -51
15 -77 6 -26 8 -52 4 -58 -3 -5 -2 -10 4 -10 5 0 10 -8 10 -17 0 -10 7 -52 15
-93 9 -41 15 -79 14 -85 0 -5 2 -17 5 -25 12 -30 27 -122 21 -131 -8 -14 19
-10 40 6 25 19 42 20 30 2 -5 -7 -2 -6 6 4 15 15 58 42 70 44 3 0 17 9 32 19
15 10 33 14 40 10 7 -4 10 -4 6 1 -9 10 151 87 164 79 7 -4 8 -2 4 4 -6 11 6
16 26 13 5 0 8 3 8 8 0 11 59 35 82 34 11 -1 16 3 12 9 -5 7 0 9 13 6 12 -3
27 -1 34 4 11 8 10 9 -3 4 -10 -3 -18 -3 -18 -1 0 11 113 55 123 48 6 -3 7 -1
3 5 -4 7 -2 12 4 12 7 0 34 11 61 25 27 13 49 22 49 18 0 -3 6 0 13 6 8 6 17
8 20 4 4 -3 7 -1 7 6 0 9 5 9 23 0 20 -11 21 -11 8 5 -8 9 -10 16 -5 15 5 -1
34 9 64 23 30 14 66 28 80 32 24 7 37 12 132 54 29 13 50 18 53 12 4 -6 11 -7
17 -4 6 4 5 10 -3 16 -9 6 -2 7 21 3 23 -4 30 -3 21 3 -9 7 12 18 77 40 84 28
91 29 107 13 10 -9 15 -10 11 -3 -4 6 -2 12 4 12 6 0 9 4 6 9 -4 5 13 16 36
25 129 46 188 65 188 60 0 -4 6 -2 13 3 13 11 113 46 137 48 9 0 20 4 25 7 34
19 255 75 305 77 8 0 40 5 70 11 30 6 95 12 143 15 48 2 91 7 96 9 4 3 38 5
77 5 38 0 75 0 82 0 9 1 12 137 12 646 l0 645 -2560 0 -2560 0 0 -2560z"/>
<path d="M1903 4354 c0 -17 2 -22 7 -13 5 6 6 18 3 26 -8 19 -10 16 -10 -13z"/>
<path d="M1905 4269 c-4 -6 -5 -12 -2 -15 2 -3 7 2 10 11 7 17 1 20 -8 4z"/>
<path d="M1776 4133 c-6 -14 -5 -15 5 -6 7 7 10 15 7 18 -3 3 -9 -2 -12 -12z"/>
<path d="M4724 3722 c2 -9 7 -17 13 -19 14 -5 12 25 -3 31 -7 3 -11 -2 -10
-12z"/>
<path d="M4480 3656 c0 -2 11 -6 25 -8 13 -3 22 -1 19 3 -5 9 -44 13 -44 5z"/>
<path d="M4218 3613 c7 -3 16 -2 19 1 4 3 -2 6 -13 5 -11 0 -14 -3 -6 -6z"/>
<path d="M3958 3548 c6 -6 18 -8 28 -6 14 3 12 5 -9 10 -19 3 -25 2 -19 -4z"/>
<path d="M3738 3453 c7 -3 16 -2 19 1 4 3 -2 6 -13 5 -11 0 -14 -3 -6 -6z"/>
<path d="M1728 3401 c11 -7 10 -10 -3 -15 -24 -9 -27 -8 -19 7 5 9 3 9 -7 -1
-12 -11 -12 -14 1 -23 13 -8 12 -11 -4 -24 -11 -8 -17 -15 -13 -15 4 0 2 -10
-5 -22 -7 -13 -12 -26 -13 -30 0 -4 -7 -15 -15 -25 -8 -10 -16 -27 -18 -37 -2
-10 -14 -35 -26 -55 -13 -20 -23 -39 -22 -43 1 -4 -6 -15 -14 -25 -8 -10 -16
-27 -18 -37 -2 -10 -15 -37 -29 -60 -15 -23 -25 -42 -22 -43 2 -1 -3 -10 -11
-20 -8 -10 -16 -27 -18 -37 -2 -10 -14 -35 -26 -55 -13 -20 -24 -40 -24 -46
-1 -5 -7 -17 -14 -25 -7 -9 -14 -24 -16 -34 -2 -10 -15 -37 -29 -60 -15 -23
-26 -43 -25 -46 1 -3 -3 -12 -10 -20 -7 -9 -14 -24 -16 -34 -2 -10 -15 -37
-29 -60 -15 -23 -26 -43 -25 -46 1 -3 -3 -12 -10 -20 -7 -9 -14 -24 -16 -34
-2 -10 -15 -37 -29 -60 -15 -23 -26 -43 -25 -46 1 -3 -3 -12 -10 -20 -7 -9
-14 -24 -16 -34 -2 -10 -15 -37 -29 -60 -15 -23 -26 -43 -25 -46 1 -3 -3 -12
-10 -20 -7 -9 -14 -24 -16 -34 -2 -10 -15 -37 -29 -60 -15 -23 -25 -42 -22
-43 2 -1 -4 -11 -13 -23 -10 -11 -16 -20 -13 -20 3 0 -9 -25 -25 -56 -36 -66
-32 -84 10 -43 16 17 34 28 40 24 6 -3 7 1 4 10 -4 9 -2 15 5 13 6 -2 21 9 33
24 13 15 64 61 113 104 50 42 103 87 118 101 15 13 32 21 36 18 5 -2 14 2 21
10 7 8 9 15 5 15 -4 0 -2 7 5 15 7 8 16 13 20 10 5 -3 12 -1 15 5 5 8 11 8 19
1 9 -8 13 -7 13 4 0 8 -4 12 -9 9 -16 -10 -8 13 11 30 12 11 21 14 26 7 7 -13
46 4 42 18 -1 5 13 27 32 50 23 29 38 40 49 36 9 -3 13 -3 9 1 -8 8 11 34 25
34 6 0 4 -8 -3 -17 -11 -15 -10 -14 9 1 24 21 29 32 10 20 -9 -6 -9 -3 1 9 13
16 43 18 57 4 4 -4 12 -7 18 -7 5 0 1 6 -9 14 -11 8 -24 12 -29 9 -5 -4 -6 -1
-2 5 3 6 16 9 27 7 15 -3 18 -1 11 8 -7 8 -3 17 13 30 15 11 26 13 30 7 4 -6
1 -9 -5 -8 -7 2 -14 -5 -15 -15 -3 -18 -2 -18 15 -2 10 9 16 23 14 29 -4 11
27 40 48 45 4 1 20 13 35 27 15 13 32 23 39 20 14 -5 26 28 14 41 -10 11 -33
134 -26 141 3 3 2 10 -4 17 -5 6 -12 27 -14 46 -3 19 -10 54 -16 78 -6 24 -9
50 -6 58 3 7 1 13 -5 13 -6 0 -8 7 -5 16 3 8 1 24 -5 35 -5 11 -12 34 -13 52
-2 18 -7 40 -11 51 -5 11 -3 27 4 38 7 11 10 23 7 26 -3 3 -6 0 -6 -7 0 -7 -4
-10 -9 -7 -13 9 -44 182 -37 211 5 20 3 25 -11 25 -14 0 -15 -2 -5 -9z m-231
-1109 c-10 -10 -15 -21 -12 -24 3 -3 -1 -8 -10 -11 -21 -9 -19 3 7 30 25 27
39 31 15 5z"/>
<path d="M3470 3375 c-7 -9 -8 -15 -2 -15 5 0 12 7 16 15 3 8 4 15 2 15 -2 0
-9 -7 -16 -15z"/>
<path d="M3318 3313 c6 -2 9 -10 6 -15 -4 -7 -2 -8 5 -4 13 9 5 26 -12 25 -9
0 -8 -2 1 -6z"/>
<path d="M1335 3269 c-4 -6 -5 -12 -2 -15 2 -3 7 2 10 11 7 17 1 20 -8 4z"/>
<path d="M3485 3220 c-3 -6 1 -7 9 -4 18 7 21 14 7 14 -6 0 -13 -4 -16 -10z"/>
<path d="M2978 3173 c7 -3 16 -2 19 1 4 3 -2 6 -13 5 -11 0 -14 -3 -6 -6z"/>
<path d="M3329 3153 c-13 -16 -12 -17 4 -4 9 7 17 15 17 17 0 8 -8 3 -21 -13z"/>
<path d="M3018 3143 c7 -3 16 -2 19 1 4 3 -2 6 -13 5 -11 0 -14 -3 -6 -6z"/>
<path d="M3180 3100 c-9 -6 -10 -10 -3 -10 6 0 15 5 18 10 8 12 4 12 -15 0z"/>
<path d="M2997 3019 c7 -7 15 -10 18 -7 3 3 -2 9 -12 12 -14 6 -15 5 -6 -5z"/>
<path d="M2966 2987 c3 -10 9 -15 12 -12 3 3 0 11 -7 18 -10 9 -11 8 -5 -6z"/>
<path d="M2907 2946 c4 -5 -1 -7 -11 -3 -10 4 -15 3 -11 -3 8 -13 18 -13 39 3
16 12 16 13 -3 13 -11 0 -17 -5 -14 -10z"/>
<path d="M2808 2943 c7 -3 16 -2 19 1 4 3 -2 6 -13 5 -11 0 -14 -3 -6 -6z"/>
<path d="M2840 2930 c-8 -5 -10 -10 -5 -10 6 0 17 5 25 10 8 5 11 10 5 10 -5
0 -17 -5 -25 -10z"/>
<path d="M2769 2853 c-13 -16 -12 -17 4 -4 16 13 21 21 13 21 -2 0 -10 -8 -17
-17z"/>
<path d="M1781 2506 c-9 -11 -9 -16 1 -22 7 -4 10 -4 6 1 -4 4 -3 14 3 22 6 7
9 13 6 13 -2 0 -10 -6 -16 -14z"/>
<path d="M839 2383 c-13 -16 -12 -17 4 -4 9 7 17 15 17 17 0 8 -8 3 -21 -13z"/>
<path d="M770 2181 c0 -6 4 -13 10 -16 6 -3 7 1 4 9 -7 18 -14 21 -14 7z"/>
<path d="M1325 2109 c-11 -16 -1 -19 13 -3 7 8 8 14 3 14 -5 0 -13 -5 -16 -11z"/>
<path d="M1260 2031 c0 -6 4 -13 10 -16 6 -3 7 1 4 9 -7 18 -14 21 -14 7z"/>
<path d="M1200 2020 c-9 -6 -10 -10 -3 -10 6 0 15 5 18 10 8 12 4 12 -15 0z"/>
<path d="M655 2010 c-3 -6 1 -7 9 -4 18 7 21 14 7 14 -6 0 -13 -4 -16 -10z"/>
<path d="M1165 2000 c3 -5 8 -10 11 -10 2 0 4 5 4 10 0 6 -5 10 -11 10 -5 0
-7 -4 -4 -10z"/>
<path d="M1349 1918 c0 -2 -2 -13 -3 -26 -3 -21 -2 -21 16 -5 22 20 23 24 1
16 -11 -4 -14 -3 -9 5 4 7 5 12 2 12 -3 0 -6 -1 -7 -2z"/>
<path d="M596 1873 c-6 -14 -5 -15 5 -6 7 7 10 15 7 18 -3 3 -9 -2 -12 -12z"/>
<path d="M1267 1830 c18 -20 -33 -75 -54 -58 -11 9 -13 8 -11 -3 2 -8 -3 -13
-11 -11 -11 2 -12 0 -3 -11 7 -8 9 -18 5 -23 -4 -5 18 16 50 46 31 30 57 56
57 59 0 2 -3 1 -7 -2 -3 -4 -13 -1 -22 5 -13 10 -14 10 -4 -2z"/>
<path d="M1124 1692 c3 -5 1 -12 -6 -14 -6 -2 -12 -14 -13 -26 -1 -11 2 -19 7
-16 5 3 7 11 5 17 -2 7 3 17 11 23 12 9 12 13 2 19 -8 5 -11 4 -6 -3z"/>
<path d="M2124 1692 c4 -3 14 -7 22 -8 9 -1 13 0 10 4 -4 3 -14 7 -22 8 -9 1
-13 0 -10 -4z"/>
<path d="M1005 1580 c-3 -6 1 -7 9 -4 18 7 21 14 7 14 -6 0 -13 -4 -16 -10z"/>
<path d="M955 1501 c-3 -5 -2 -12 3 -15 5 -3 9 1 9 9 0 17 -3 19 -12 6z"/>
<path d="M340 1449 c0 -5 5 -7 10 -4 6 3 10 8 10 11 0 2 -4 4 -10 4 -5 0 -10
-5 -10 -11z"/>
<path d="M2099 1354 c-13 -15 -64 -53 -112 -84 l-89 -57 44 -25 c94 -54 246
-138 251 -138 2 0 2 12 -1 26 -3 19 -1 25 7 20 6 -4 8 -12 5 -18 -5 -7 -2 -8
6 -3 10 6 8 12 -8 25 -14 12 -23 32 -25 61 -3 24 -7 51 -10 59 -12 31 -25 113
-22 136 3 32 -16 30 -46 -2z"/>
<path d="M813 1343 c0 -9 4 -10 14 -2 7 6 13 12 13 14 0 1 -6 2 -13 2 -8 0
-14 -6 -14 -14z"/>
<path d="M206 1162 c-3 -5 1 -9 9 -9 8 0 12 4 9 9 -3 4 -7 8 -9 8 -2 0 -6 -4
-9 -8z"/>
<path d="M2216 1123 c-6 -14 -5 -15 5 -6 7 7 10 15 7 18 -3 3 -9 -2 -12 -12z"/>
<path d="M580 1090 c-17 -23 -20 -34 -11 -43 8 -8 14 -8 24 2 10 10 9 11 -5 6
-21 -8 -23 3 -4 27 8 12 16 14 23 7 7 -7 14 -4 24 8 7 10 9 15 5 11 -5 -4 -15
-3 -22 3 -9 7 -18 2 -34 -21z"/>
<path d="M2722 1040 c7 -10 14 -18 15 -16 6 6 -9 36 -18 36 -5 0 -4 -9 3 -20z"/>
<path d="M2737 999 c7 -7 15 -10 18 -7 3 3 -2 9 -12 12 -14 6 -15 5 -6 -5z"/>
<path d="M495 969 c-4 -6 -5 -12 -2 -15 2 -3 7 2 10 11 7 17 1 20 -8 4z"/>
</g>
</svg>
